<mxfile host="app.diagrams.net" modified="2024-02-04T20:19:00.680Z" agent="Mozilla/5.0 (Windows NT 10.0; Win64; x64) AppleWebKit/537.36 (KHTML, like Gecko) Chrome/121.0.0.0 Safari/537.36" etag="mAEzJvxHqaWupPgC7ctD" version="23.1.1" type="device">
  <diagram name="Page-1" id="FVStUbGwRKNYsd9I59xf">
    <mxGraphModel dx="3825" dy="1793" grid="0" gridSize="10" guides="1" tooltips="1" connect="1" arrows="1" fold="1" page="0" pageScale="1" pageWidth="827" pageHeight="1169" math="0" shadow="0">
      <root>
        <mxCell id="0" />
        <mxCell id="1" parent="0" />
        <mxCell id="Y-c2Va9Qzz9B_mJ6yjjV-3" value="" style="rounded=0;whiteSpace=wrap;html=1;fontSize=16;fillColor=#dae8fc;strokeColor=#6c8ebf;align=left;" parent="1" vertex="1">
          <mxGeometry x="-850" y="-70" width="290" height="180" as="geometry" />
        </mxCell>
        <mxCell id="Y-c2Va9Qzz9B_mJ6yjjV-4" value="" style="rounded=0;whiteSpace=wrap;html=1;fontSize=16;fillColor=#dae8fc;strokeColor=#6c8ebf;" parent="1" vertex="1">
          <mxGeometry x="-800" y="140" width="190" height="50" as="geometry" />
        </mxCell>
        <mxCell id="Y-c2Va9Qzz9B_mJ6yjjV-5" value="" style="rounded=0;whiteSpace=wrap;html=1;fontSize=16;fillColor=#dae8fc;strokeColor=#6c8ebf;" parent="1" vertex="1">
          <mxGeometry x="-800" y="-200" width="200" height="40" as="geometry" />
        </mxCell>
        <mxCell id="Y-c2Va9Qzz9B_mJ6yjjV-7" value="" style="rounded=0;whiteSpace=wrap;html=1;fontSize=16;fillColor=#dae8fc;strokeColor=#6c8ebf;" parent="1" vertex="1">
          <mxGeometry x="-850" y="220" width="290" height="180" as="geometry" />
        </mxCell>
        <mxCell id="Y-c2Va9Qzz9B_mJ6yjjV-8" value="instr_req_ip&lt;br&gt;instr_addr_ip" style="text;strokeColor=none;align=left;fillColor=none;html=1;verticalAlign=middle;whiteSpace=wrap;rounded=0;fontSize=16;" parent="1" vertex="1">
          <mxGeometry x="-840" y="10" width="60" height="30" as="geometry" />
        </mxCell>
        <mxCell id="Y-c2Va9Qzz9B_mJ6yjjV-9" value="instr_valid_op&lt;br&gt;instr_data_op" style="text;strokeColor=none;align=right;fillColor=none;html=1;verticalAlign=middle;whiteSpace=wrap;rounded=0;fontSize=16;" parent="1" vertex="1">
          <mxGeometry x="-630" y="10" width="60" height="30" as="geometry" />
        </mxCell>
        <mxCell id="Y-c2Va9Qzz9B_mJ6yjjV-10" style="edgeStyle=none;curved=1;rounded=0;orthogonalLoop=1;jettySize=auto;html=1;exitX=1;exitY=0;exitDx=0;exitDy=0;entryX=1;entryY=0.25;entryDx=0;entryDy=0;fontSize=12;startSize=8;endSize=8;" parent="1" source="Y-c2Va9Qzz9B_mJ6yjjV-9" target="Y-c2Va9Qzz9B_mJ6yjjV-9" edge="1">
          <mxGeometry relative="1" as="geometry">
            <Array as="points">
              <mxPoint x="-570" y="10" />
            </Array>
          </mxGeometry>
        </mxCell>
        <mxCell id="Y-c2Va9Qzz9B_mJ6yjjV-11" value="Instruction Memory" style="text;strokeColor=none;align=center;fillColor=none;html=1;verticalAlign=middle;whiteSpace=wrap;rounded=0;fontSize=16;" parent="1" vertex="1">
          <mxGeometry x="-740" y="-40" width="70" height="30" as="geometry" />
        </mxCell>
        <mxCell id="Y-c2Va9Qzz9B_mJ6yjjV-12" value="PC" style="text;strokeColor=none;align=center;fillColor=none;html=1;verticalAlign=middle;whiteSpace=wrap;rounded=0;fontSize=16;" parent="1" vertex="1">
          <mxGeometry x="-740" y="150" width="70" height="30" as="geometry" />
        </mxCell>
        <mxCell id="Y-c2Va9Qzz9B_mJ6yjjV-13" value="Fetch Module" style="text;strokeColor=none;align=center;fillColor=none;html=1;verticalAlign=middle;whiteSpace=wrap;rounded=0;fontSize=16;" parent="1" vertex="1">
          <mxGeometry x="-740" y="240" width="70" height="30" as="geometry" />
        </mxCell>
        <mxCell id="Y-c2Va9Qzz9B_mJ6yjjV-14" value="instr_gnt_ip&lt;br&gt;Next_PC_ip&lt;br&gt;" style="text;strokeColor=none;align=left;fillColor=none;html=1;verticalAlign=middle;whiteSpace=wrap;rounded=0;fontSize=16;" parent="1" vertex="1">
          <mxGeometry x="-838" y="300" width="60" height="30" as="geometry" />
        </mxCell>
        <mxCell id="Y-c2Va9Qzz9B_mJ6yjjV-15" value="instr_req_op&lt;br&gt;instr_addr_op&lt;br&gt;pc_addr" style="text;strokeColor=none;align=right;fillColor=none;html=1;verticalAlign=middle;whiteSpace=wrap;rounded=0;fontSize=16;" parent="1" vertex="1">
          <mxGeometry x="-630" y="310" width="60" height="30" as="geometry" />
        </mxCell>
        <mxCell id="Y-c2Va9Qzz9B_mJ6yjjV-18" style="edgeStyle=none;curved=1;rounded=0;orthogonalLoop=1;jettySize=auto;html=1;exitX=1;exitY=0.5;exitDx=0;exitDy=0;fontSize=12;startSize=8;endSize=8;" parent="1" edge="1">
          <mxGeometry relative="1" as="geometry">
            <mxPoint x="-772" y="315" as="sourcePoint" />
            <mxPoint x="-772" y="315" as="targetPoint" />
          </mxGeometry>
        </mxCell>
        <mxCell id="Y-c2Va9Qzz9B_mJ6yjjV-21" value="Instruction_Fetch Module" style="text;strokeColor=none;align=center;fillColor=none;html=1;verticalAlign=middle;whiteSpace=wrap;rounded=0;fontSize=16;" parent="1" vertex="1">
          <mxGeometry x="-800" y="-210" width="200" height="60" as="geometry" />
        </mxCell>
        <mxCell id="Y-c2Va9Qzz9B_mJ6yjjV-25" value="" style="rounded=0;whiteSpace=wrap;html=1;fontSize=16;fillColor=#dae8fc;strokeColor=#6c8ebf;" parent="1" vertex="1">
          <mxGeometry x="-480" y="-80" width="50" height="560" as="geometry" />
        </mxCell>
        <mxCell id="Y-c2Va9Qzz9B_mJ6yjjV-26" value="" style="rounded=0;whiteSpace=wrap;html=1;fontSize=16;fillColor=#fff2cc;strokeColor=#d6b656;align=left;" parent="1" vertex="1">
          <mxGeometry x="-320" y="-70" width="290" height="180" as="geometry" />
        </mxCell>
        <mxCell id="Y-c2Va9Qzz9B_mJ6yjjV-29" value="" style="rounded=0;whiteSpace=wrap;html=1;fontSize=16;fillColor=#fff2cc;strokeColor=#d6b656;" parent="1" vertex="1">
          <mxGeometry x="-350" y="220" width="330" height="320" as="geometry" />
        </mxCell>
        <mxCell id="Y-c2Va9Qzz9B_mJ6yjjV-30" value="raddr_a_ip&lt;br&gt;raddr_b_ip&lt;br&gt;waddr_a_ip&lt;br&gt;wdata_a_ip&lt;br&gt;we_a_ip" style="text;strokeColor=none;align=left;fillColor=none;html=1;verticalAlign=middle;whiteSpace=wrap;rounded=0;fontSize=16;" parent="1" vertex="1">
          <mxGeometry x="-307" y="30" width="60" height="30" as="geometry" />
        </mxCell>
        <mxCell id="Y-c2Va9Qzz9B_mJ6yjjV-31" value="raddr_a_op&lt;br&gt;raddr_b_op" style="text;strokeColor=none;align=right;fillColor=none;html=1;verticalAlign=middle;whiteSpace=wrap;rounded=0;fontSize=16;" parent="1" vertex="1">
          <mxGeometry x="-101" y="1" width="60" height="30" as="geometry" />
        </mxCell>
        <mxCell id="Y-c2Va9Qzz9B_mJ6yjjV-32" style="edgeStyle=none;curved=1;rounded=0;orthogonalLoop=1;jettySize=auto;html=1;exitX=1;exitY=0;exitDx=0;exitDy=0;entryX=1;entryY=0.25;entryDx=0;entryDy=0;fontSize=12;startSize=8;endSize=8;" parent="1" source="Y-c2Va9Qzz9B_mJ6yjjV-31" target="Y-c2Va9Qzz9B_mJ6yjjV-31" edge="1">
          <mxGeometry relative="1" as="geometry" />
        </mxCell>
        <mxCell id="Y-c2Va9Qzz9B_mJ6yjjV-33" value="32 x 32 Register File" style="text;strokeColor=none;align=center;fillColor=none;html=1;verticalAlign=middle;whiteSpace=wrap;rounded=0;fontSize=16;" parent="1" vertex="1">
          <mxGeometry x="-225" y="-50" width="100" height="30" as="geometry" />
        </mxCell>
        <mxCell id="Y-c2Va9Qzz9B_mJ6yjjV-35" value="Decode&lt;br&gt;Module" style="text;strokeColor=none;align=center;fillColor=none;html=1;verticalAlign=middle;whiteSpace=wrap;rounded=0;fontSize=16;" parent="1" vertex="1">
          <mxGeometry x="-210" y="240" width="70" height="30" as="geometry" />
        </mxCell>
        <mxCell id="Y-c2Va9Qzz9B_mJ6yjjV-36" value="instr_data_valid_ip&lt;br&gt;instr_data_ip&lt;br&gt;mem_dest_reg_ip&lt;br&gt;write_reg_addr_ip&lt;br&gt;wb_data_ip&lt;br&gt;wb_data_valid_ip" style="text;strokeColor=none;align=left;fillColor=none;html=1;verticalAlign=middle;whiteSpace=wrap;rounded=0;fontSize=16;" parent="1" vertex="1">
          <mxGeometry x="-340" y="330" width="60" height="30" as="geometry" />
        </mxCell>
        <mxCell id="Y-c2Va9Qzz9B_mJ6yjjV-37" value="alu_en_op&lt;br&gt;alu_operator_op&lt;br&gt;alu_operand_a_ex_op&lt;br&gt;alu_operand_b_ex_op&lt;br&gt;write_reg_Addr_op&lt;br&gt;wb_mux_op&lt;br&gt;id_pc_addr_pt_op&lt;br&gt;id_uimmd_pt_op&lt;br&gt;en_lsu_op&lt;br&gt;lsu_operator_op&lt;br&gt;mem_wdata_op&lt;br&gt;pc_branch_offset_op" style="text;strokeColor=none;align=right;fillColor=none;html=1;verticalAlign=middle;whiteSpace=wrap;rounded=0;fontSize=16;" parent="1" vertex="1">
          <mxGeometry x="-90" y="385" width="60" height="30" as="geometry" />
        </mxCell>
        <mxCell id="Y-c2Va9Qzz9B_mJ6yjjV-38" style="edgeStyle=none;curved=1;rounded=0;orthogonalLoop=1;jettySize=auto;html=1;exitX=1;exitY=0.5;exitDx=0;exitDy=0;fontSize=12;startSize=8;endSize=8;" parent="1" edge="1">
          <mxGeometry relative="1" as="geometry">
            <mxPoint x="-242" y="315" as="sourcePoint" />
            <mxPoint x="-242" y="315" as="targetPoint" />
          </mxGeometry>
        </mxCell>
        <mxCell id="Y-c2Va9Qzz9B_mJ6yjjV-39" value="Instruction_Decode Module" style="text;strokeColor=#d6b656;align=center;fillColor=#fff2cc;html=1;verticalAlign=middle;whiteSpace=wrap;rounded=0;fontSize=16;" parent="1" vertex="1">
          <mxGeometry x="-280" y="-200" width="200" height="40" as="geometry" />
        </mxCell>
        <mxCell id="Y-c2Va9Qzz9B_mJ6yjjV-40" value="" style="rounded=0;whiteSpace=wrap;html=1;fontSize=16;fillColor=#fff2cc;strokeColor=#d6b656;" parent="1" vertex="1">
          <mxGeometry x="50" y="-80" width="50" height="560" as="geometry" />
        </mxCell>
        <mxCell id="Y-c2Va9Qzz9B_mJ6yjjV-46" value="" style="rounded=0;whiteSpace=wrap;html=1;fontSize=16;fillColor=#fff2cc;strokeColor=#d6b656;" parent="1" vertex="1">
          <mxGeometry x="-350" y="541" width="330" height="280" as="geometry" />
        </mxCell>
        <mxCell id="Y-c2Va9Qzz9B_mJ6yjjV-47" value="Stall Controller" style="text;strokeColor=none;align=center;fillColor=none;html=1;verticalAlign=middle;whiteSpace=wrap;rounded=0;fontSize=16;" parent="1" vertex="1">
          <mxGeometry x="-220" y="560" width="70" height="30" as="geometry" />
        </mxCell>
        <mxCell id="Y-c2Va9Qzz9B_mJ6yjjV-48" value="ID_instr_opcode_ip&lt;br&gt;ID_src1_addr_ip&lt;br&gt;ID_src2_addr_ip&lt;br&gt;EX_reg_dest_ip&lt;br&gt;LSU_reg_dest_ip&lt;br&gt;WB_reg_dest_ip&lt;br&gt;WB_write_reg_en_ip&lt;br&gt;EX_instr_opcode_ip" style="text;strokeColor=none;align=left;fillColor=none;html=1;verticalAlign=middle;whiteSpace=wrap;rounded=0;fontSize=16;" parent="1" vertex="1">
          <mxGeometry x="-340" y="680" width="60" height="30" as="geometry" />
        </mxCell>
        <mxCell id="Y-c2Va9Qzz9B_mJ6yjjV-49" value="stall_op" style="text;strokeColor=none;align=right;fillColor=none;html=1;verticalAlign=middle;whiteSpace=wrap;rounded=0;fontSize=16;" parent="1" vertex="1">
          <mxGeometry x="-90" y="620" width="60" height="30" as="geometry" />
        </mxCell>
        <mxCell id="Y-c2Va9Qzz9B_mJ6yjjV-50" style="edgeStyle=none;curved=1;rounded=0;orthogonalLoop=1;jettySize=auto;html=1;exitX=1;exitY=0.5;exitDx=0;exitDy=0;fontSize=12;startSize=8;endSize=8;" parent="1" edge="1">
          <mxGeometry relative="1" as="geometry">
            <mxPoint x="-261" y="626" as="sourcePoint" />
            <mxPoint x="-261" y="626" as="targetPoint" />
          </mxGeometry>
        </mxCell>
        <mxCell id="Y-c2Va9Qzz9B_mJ6yjjV-51" value="" style="shape=trapezoid;perimeter=trapezoidPerimeter;whiteSpace=wrap;html=1;fixedSize=1;fontSize=16;rotation=90;fillColor=#f8cecc;strokeColor=#b85450;" parent="1" vertex="1">
          <mxGeometry x="120" y="-30" width="120" height="40" as="geometry" />
        </mxCell>
        <mxCell id="Y-c2Va9Qzz9B_mJ6yjjV-52" value="" style="shape=trapezoid;perimeter=trapezoidPerimeter;whiteSpace=wrap;html=1;fixedSize=1;fontSize=16;rotation=90;fillColor=#f8cecc;strokeColor=#b85450;" parent="1" vertex="1">
          <mxGeometry x="120" y="120" width="120" height="40" as="geometry" />
        </mxCell>
        <mxCell id="Y-c2Va9Qzz9B_mJ6yjjV-53" value="" style="rounded=0;whiteSpace=wrap;html=1;fontSize=16;fillColor=#f8cecc;strokeColor=#b85450;align=left;" parent="1" vertex="1">
          <mxGeometry x="240" y="-80" width="290" height="180" as="geometry" />
        </mxCell>
        <mxCell id="Y-c2Va9Qzz9B_mJ6yjjV-54" value="alu_enable_ip&lt;br&gt;alu_operator_ip&lt;br&gt;alu_operand_a_ip&lt;br&gt;alu_operand_b_ip" style="text;align=left;html=1;verticalAlign=middle;whiteSpace=wrap;rounded=0;fontSize=16;" parent="1" vertex="1">
          <mxGeometry x="253" y="10" width="60" height="30" as="geometry" />
        </mxCell>
        <mxCell id="Y-c2Va9Qzz9B_mJ6yjjV-55" value="alu_result_op&lt;br&gt;alu_valid_op" style="text;align=right;html=1;verticalAlign=middle;whiteSpace=wrap;rounded=0;fontSize=16;" parent="1" vertex="1">
          <mxGeometry x="462.5" y="-5" width="60" height="30" as="geometry" />
        </mxCell>
        <mxCell id="Y-c2Va9Qzz9B_mJ6yjjV-56" style="edgeStyle=none;curved=1;rounded=0;orthogonalLoop=1;jettySize=auto;html=1;exitX=1;exitY=0;exitDx=0;exitDy=0;entryX=1;entryY=0.25;entryDx=0;entryDy=0;fontSize=12;startSize=8;endSize=8;fillColor=#f8cecc;strokeColor=#b85450;" parent="1" source="Y-c2Va9Qzz9B_mJ6yjjV-55" target="Y-c2Va9Qzz9B_mJ6yjjV-55" edge="1">
          <mxGeometry relative="1" as="geometry" />
        </mxCell>
        <mxCell id="Y-c2Va9Qzz9B_mJ6yjjV-57" value="ALU Unit" style="text;align=center;html=1;verticalAlign=middle;whiteSpace=wrap;rounded=0;fontSize=16;" parent="1" vertex="1">
          <mxGeometry x="335" y="-60" width="100" height="30" as="geometry" />
        </mxCell>
        <mxCell id="Y-c2Va9Qzz9B_mJ6yjjV-58" value="" style="rounded=0;whiteSpace=wrap;html=1;fontSize=16;fillColor=#f8cecc;strokeColor=#b85450;align=left;" parent="1" vertex="1">
          <mxGeometry x="240" y="120" width="290" height="70" as="geometry" />
        </mxCell>
        <mxCell id="Y-c2Va9Qzz9B_mJ6yjjV-61" style="edgeStyle=none;curved=1;rounded=0;orthogonalLoop=1;jettySize=auto;html=1;exitX=1;exitY=0;exitDx=0;exitDy=0;entryX=1;entryY=0.25;entryDx=0;entryDy=0;fontSize=12;startSize=8;endSize=8;fillColor=#f8cecc;strokeColor=#b85450;" parent="1" edge="1">
          <mxGeometry relative="1" as="geometry">
            <mxPoint x="510" y="190" as="sourcePoint" />
            <mxPoint x="510" y="197.5" as="targetPoint" />
          </mxGeometry>
        </mxCell>
        <mxCell id="Y-c2Va9Qzz9B_mJ6yjjV-62" value="Comparator" style="text;align=center;html=1;verticalAlign=middle;whiteSpace=wrap;rounded=0;fontSize=16;" parent="1" vertex="1">
          <mxGeometry x="335" y="140" width="100" height="30" as="geometry" />
        </mxCell>
        <mxCell id="Y-c2Va9Qzz9B_mJ6yjjV-63" value="" style="rounded=0;whiteSpace=wrap;html=1;fontSize=16;fillColor=#f8cecc;strokeColor=#b85450;align=left;" parent="1" vertex="1">
          <mxGeometry x="240" y="237" width="290" height="210" as="geometry" />
        </mxCell>
        <mxCell id="Y-c2Va9Qzz9B_mJ6yjjV-64" value="id_instr_opcode_ip&lt;br&gt;EX_MEM_dest_ip&lt;br&gt;MEM_WB_wb_mux_ip&lt;br&gt;EX_MEM_dest_ip&lt;br&gt;MEM_WB_dest_ip&lt;br&gt;ID_dest_rs1_ip&lt;br&gt;ID_dest_rs2_ip" style="text;align=left;html=1;verticalAlign=middle;whiteSpace=wrap;rounded=0;fontSize=16;" parent="1" vertex="1">
          <mxGeometry x="253" y="357" width="60" height="30" as="geometry" />
        </mxCell>
        <mxCell id="Y-c2Va9Qzz9B_mJ6yjjV-65" value="fa_mux_op&lt;br&gt;fb_mux_op" style="text;align=right;html=1;verticalAlign=middle;whiteSpace=wrap;rounded=0;fontSize=16;" parent="1" vertex="1">
          <mxGeometry x="453" y="309" width="60" height="30" as="geometry" />
        </mxCell>
        <mxCell id="Y-c2Va9Qzz9B_mJ6yjjV-66" style="edgeStyle=none;curved=1;rounded=0;orthogonalLoop=1;jettySize=auto;html=1;exitX=1;exitY=0;exitDx=0;exitDy=0;entryX=1;entryY=0.25;entryDx=0;entryDy=0;fontSize=12;startSize=8;endSize=8;fillColor=#f8cecc;strokeColor=#b85450;" parent="1" source="Y-c2Va9Qzz9B_mJ6yjjV-65" target="Y-c2Va9Qzz9B_mJ6yjjV-65" edge="1">
          <mxGeometry relative="1" as="geometry" />
        </mxCell>
        <mxCell id="Y-c2Va9Qzz9B_mJ6yjjV-67" value="Forward Controller Module" style="text;align=center;html=1;verticalAlign=middle;whiteSpace=wrap;rounded=0;fontSize=16;" parent="1" vertex="1">
          <mxGeometry x="307.5" y="257" width="155" height="30" as="geometry" />
        </mxCell>
        <mxCell id="Y-c2Va9Qzz9B_mJ6yjjV-68" value="" style="rounded=0;whiteSpace=wrap;html=1;fontSize=16;fillColor=#f8cecc;strokeColor=#b85450;" parent="1" vertex="1">
          <mxGeometry x="570" y="-80" width="50" height="560" as="geometry" />
        </mxCell>
        <mxCell id="Y-c2Va9Qzz9B_mJ6yjjV-69" value="Instruction_Execute Module" style="text;strokeColor=#b85450;align=center;fillColor=#f8cecc;html=1;verticalAlign=middle;whiteSpace=wrap;rounded=0;fontSize=16;" parent="1" vertex="1">
          <mxGeometry x="285" y="-200" width="200" height="40" as="geometry" />
        </mxCell>
        <mxCell id="Y-c2Va9Qzz9B_mJ6yjjV-70" value="" style="rounded=0;whiteSpace=wrap;html=1;fontSize=16;fillColor=#e1d5e7;strokeColor=#9673a6;align=left;" parent="1" vertex="1">
          <mxGeometry x="680" y="-80" width="290" height="180" as="geometry" />
        </mxCell>
        <mxCell id="Y-c2Va9Qzz9B_mJ6yjjV-71" value="datae_req_ip&lt;br&gt;data_addr_ip&lt;br&gt;wdata_ip&lt;br&gt;lsu_operator" style="text;align=left;html=1;verticalAlign=middle;whiteSpace=wrap;rounded=0;fontSize=16;" parent="1" vertex="1">
          <mxGeometry x="693" y="10" width="60" height="30" as="geometry" />
        </mxCell>
        <mxCell id="Y-c2Va9Qzz9B_mJ6yjjV-72" value="mem_gnt_op&lt;br&gt;load_data_op" style="text;align=right;html=1;verticalAlign=middle;whiteSpace=wrap;rounded=0;fontSize=16;" parent="1" vertex="1">
          <mxGeometry x="890" y="-10" width="60" height="30" as="geometry" />
        </mxCell>
        <mxCell id="Y-c2Va9Qzz9B_mJ6yjjV-73" style="edgeStyle=none;curved=1;rounded=0;orthogonalLoop=1;jettySize=auto;html=1;exitX=1;exitY=0;exitDx=0;exitDy=0;entryX=1;entryY=0.25;entryDx=0;entryDy=0;fontSize=12;startSize=8;endSize=8;fillColor=#f8cecc;strokeColor=#b85450;" parent="1" source="Y-c2Va9Qzz9B_mJ6yjjV-72" target="Y-c2Va9Qzz9B_mJ6yjjV-72" edge="1">
          <mxGeometry relative="1" as="geometry" />
        </mxCell>
        <mxCell id="Y-c2Va9Qzz9B_mJ6yjjV-74" value="Data Memory" style="text;align=center;html=1;verticalAlign=middle;whiteSpace=wrap;rounded=0;fontSize=16;" parent="1" vertex="1">
          <mxGeometry x="775" y="-60" width="100" height="30" as="geometry" />
        </mxCell>
        <mxCell id="Y-c2Va9Qzz9B_mJ6yjjV-75" value="" style="rounded=0;whiteSpace=wrap;html=1;fontSize=16;fillColor=#e1d5e7;strokeColor=#9673a6;align=left;" parent="1" vertex="1">
          <mxGeometry x="680" y="205" width="290" height="180" as="geometry" />
        </mxCell>
        <mxCell id="Y-c2Va9Qzz9B_mJ6yjjV-78" style="edgeStyle=none;curved=1;rounded=0;orthogonalLoop=1;jettySize=auto;html=1;exitX=1;exitY=0;exitDx=0;exitDy=0;entryX=1;entryY=0.25;entryDx=0;entryDy=0;fontSize=12;startSize=8;endSize=8;fillColor=#f8cecc;strokeColor=#b85450;" parent="1" edge="1">
          <mxGeometry relative="1" as="geometry">
            <mxPoint x="950" y="283" as="sourcePoint" />
            <mxPoint x="950" y="290.5" as="targetPoint" />
          </mxGeometry>
        </mxCell>
        <mxCell id="Y-c2Va9Qzz9B_mJ6yjjV-79" value="LSU Unit" style="text;align=center;html=1;verticalAlign=middle;whiteSpace=wrap;rounded=0;fontSize=16;" parent="1" vertex="1">
          <mxGeometry x="775" y="270" width="100" height="30" as="geometry" />
        </mxCell>
        <mxCell id="Y-c2Va9Qzz9B_mJ6yjjV-80" value="" style="rounded=0;whiteSpace=wrap;html=1;fontSize=16;fillColor=#e1d5e7;strokeColor=#9673a6;" parent="1" vertex="1">
          <mxGeometry x="1010" y="-80" width="50" height="560" as="geometry" />
        </mxCell>
        <mxCell id="Y-c2Va9Qzz9B_mJ6yjjV-81" value="Memory_Module" style="text;strokeColor=#9673a6;align=center;fillColor=#e1d5e7;html=1;verticalAlign=middle;whiteSpace=wrap;rounded=0;fontSize=16;" parent="1" vertex="1">
          <mxGeometry x="725" y="-200" width="200" height="40" as="geometry" />
        </mxCell>
        <mxCell id="Y-c2Va9Qzz9B_mJ6yjjV-82" value="WriteBack_Module" style="text;strokeColor=#d79b00;align=center;fillColor=#ffe6cc;html=1;verticalAlign=middle;whiteSpace=wrap;rounded=0;fontSize=16;" parent="1" vertex="1">
          <mxGeometry x="1193" y="-200" width="200" height="40" as="geometry" />
        </mxCell>
        <mxCell id="Y-c2Va9Qzz9B_mJ6yjjV-83" value="" style="rounded=0;whiteSpace=wrap;html=1;fontSize=16;fillColor=#ffe6cc;strokeColor=#d79b00;align=left;" parent="1" vertex="1">
          <mxGeometry x="1120" y="40" width="390" height="180" as="geometry" />
        </mxCell>
        <mxCell id="Y-c2Va9Qzz9B_mJ6yjjV-84" value="WB_wb_mux_ip&lt;br&gt;WB_alu_result_ip&lt;br&gt;WB_mem_result_ip&lt;br&gt;WB_mem_result_valid_ip&lt;br&gt;WB_immediate_ip&lt;br&gt;WB_pc_ip" style="text;align=left;html=1;verticalAlign=middle;whiteSpace=wrap;rounded=0;fontSize=16;" parent="1" vertex="1">
          <mxGeometry x="1133" y="140" width="60" height="30" as="geometry" />
        </mxCell>
        <mxCell id="Y-c2Va9Qzz9B_mJ6yjjV-85" value="WB_regfile_write_valid&lt;br&gt;WB_regfile_write_data" style="text;align=right;html=1;verticalAlign=middle;whiteSpace=wrap;rounded=0;fontSize=16;" parent="1" vertex="1">
          <mxGeometry x="1440" y="100" width="60" height="30" as="geometry" />
        </mxCell>
        <mxCell id="Y-c2Va9Qzz9B_mJ6yjjV-86" style="edgeStyle=none;curved=1;rounded=0;orthogonalLoop=1;jettySize=auto;html=1;exitX=1;exitY=0;exitDx=0;exitDy=0;entryX=1;entryY=0.25;entryDx=0;entryDy=0;fontSize=12;startSize=8;endSize=8;fillColor=#ffe6cc;strokeColor=#d79b00;" parent="1" source="Y-c2Va9Qzz9B_mJ6yjjV-85" target="Y-c2Va9Qzz9B_mJ6yjjV-85" edge="1">
          <mxGeometry relative="1" as="geometry" />
        </mxCell>
        <mxCell id="Y-c2Va9Qzz9B_mJ6yjjV-87" value="Writeback Module" style="text;align=center;html=1;verticalAlign=middle;whiteSpace=wrap;rounded=0;fontSize=16;" parent="1" vertex="1">
          <mxGeometry x="1215" y="60" width="100" height="30" as="geometry" />
        </mxCell>
        <mxCell id="Y-c2Va9Qzz9B_mJ6yjjV-89" style="edgeStyle=none;curved=1;rounded=0;orthogonalLoop=1;jettySize=auto;html=1;exitX=0;exitY=0.5;exitDx=0;exitDy=0;fontSize=12;startSize=8;endSize=8;" parent="1" edge="1">
          <mxGeometry relative="1" as="geometry">
            <mxPoint x="890" y="298" as="sourcePoint" />
            <mxPoint x="890" y="298" as="targetPoint" />
          </mxGeometry>
        </mxCell>
        <mxCell id="Y-c2Va9Qzz9B_mJ6yjjV-96" value="" style="edgeStyle=segmentEdgeStyle;endArrow=classic;html=1;curved=0;rounded=0;endSize=8;startSize=8;sourcePerimeterSpacing=0;targetPerimeterSpacing=0;fontSize=12;strokeWidth=2;" parent="1" edge="1">
          <mxGeometry width="140" relative="1" as="geometry">
            <mxPoint x="-800" y="160" as="sourcePoint" />
            <mxPoint x="-850" y="35" as="targetPoint" />
            <Array as="points">
              <mxPoint x="-800" y="160" />
              <mxPoint x="-920" y="160" />
              <mxPoint x="-920" y="35" />
            </Array>
          </mxGeometry>
        </mxCell>
        <mxCell id="Y-c2Va9Qzz9B_mJ6yjjV-101" value="" style="edgeStyle=none;orthogonalLoop=1;jettySize=auto;html=1;rounded=0;fontSize=12;startSize=8;endSize=8;curved=1;strokeWidth=2;" parent="1" edge="1">
          <mxGeometry width="140" relative="1" as="geometry">
            <mxPoint x="-560" y="40" as="sourcePoint" />
            <mxPoint x="-480" y="40" as="targetPoint" />
            <Array as="points" />
          </mxGeometry>
        </mxCell>
        <mxCell id="Y-c2Va9Qzz9B_mJ6yjjV-103" value="" style="edgeStyle=none;orthogonalLoop=1;jettySize=auto;html=1;rounded=0;fontSize=12;startSize=8;endSize=8;curved=1;strokeWidth=2;exitX=1;exitY=0.5;exitDx=0;exitDy=0;" parent="1" source="Y-c2Va9Qzz9B_mJ6yjjV-4" edge="1">
          <mxGeometry width="140" relative="1" as="geometry">
            <mxPoint x="-550" y="165" as="sourcePoint" />
            <mxPoint x="-480" y="165" as="targetPoint" />
            <Array as="points" />
          </mxGeometry>
        </mxCell>
        <mxCell id="Y-c2Va9Qzz9B_mJ6yjjV-106" value="" style="edgeStyle=segmentEdgeStyle;endArrow=classic;html=1;curved=0;rounded=0;endSize=8;startSize=8;sourcePerimeterSpacing=0;targetPerimeterSpacing=0;fontSize=12;strokeWidth=2;exitX=0.018;exitY=0.196;exitDx=0;exitDy=0;exitPerimeter=0;" parent="1" edge="1">
          <mxGeometry width="140" relative="1" as="geometry">
            <mxPoint x="-479.0999999999999" y="-15.120000000000006" as="sourcePoint" />
            <mxPoint x="-350" y="310" as="targetPoint" />
            <Array as="points">
              <mxPoint x="-479" y="30" />
              <mxPoint x="-400" y="30" />
              <mxPoint x="-400" y="310" />
              <mxPoint x="-350" y="310" />
            </Array>
          </mxGeometry>
        </mxCell>
        <mxCell id="Y-c2Va9Qzz9B_mJ6yjjV-110" value="" style="edgeStyle=none;orthogonalLoop=1;jettySize=auto;html=1;rounded=0;fontSize=12;startSize=8;endSize=8;curved=1;strokeWidth=2;" parent="1" edge="1">
          <mxGeometry width="140" relative="1" as="geometry">
            <mxPoint x="100" y="-40" as="sourcePoint" />
            <mxPoint x="160" y="-40" as="targetPoint" />
            <Array as="points" />
          </mxGeometry>
        </mxCell>
        <mxCell id="Y-c2Va9Qzz9B_mJ6yjjV-111" value="" style="edgeStyle=none;orthogonalLoop=1;jettySize=auto;html=1;rounded=0;fontSize=12;startSize=8;endSize=8;curved=1;strokeWidth=2;" parent="1" edge="1">
          <mxGeometry width="140" relative="1" as="geometry">
            <mxPoint x="200" y="12" as="sourcePoint" />
            <mxPoint x="241" y="12" as="targetPoint" />
            <Array as="points" />
          </mxGeometry>
        </mxCell>
        <mxCell id="Y-c2Va9Qzz9B_mJ6yjjV-112" value="" style="edgeStyle=none;orthogonalLoop=1;jettySize=auto;html=1;rounded=0;fontSize=12;startSize=8;endSize=8;curved=1;strokeWidth=2;entryX=0;entryY=0.5;entryDx=0;entryDy=0;" parent="1" edge="1">
          <mxGeometry width="140" relative="1" as="geometry">
            <mxPoint x="529" y="15.170000000000002" as="sourcePoint" />
            <mxPoint x="680" y="14" as="targetPoint" />
            <Array as="points" />
          </mxGeometry>
        </mxCell>
        <mxCell id="Y-c2Va9Qzz9B_mJ6yjjV-113" value="" style="edgeStyle=none;orthogonalLoop=1;jettySize=auto;html=1;rounded=0;fontSize=12;startSize=8;endSize=8;curved=1;strokeWidth=2;" parent="1" edge="1">
          <mxGeometry width="140" relative="1" as="geometry">
            <mxPoint x="200" y="153" as="sourcePoint" />
            <mxPoint x="241" y="153" as="targetPoint" />
            <Array as="points" />
          </mxGeometry>
        </mxCell>
        <mxCell id="Y-c2Va9Qzz9B_mJ6yjjV-114" value="" style="edgeStyle=none;orthogonalLoop=1;jettySize=auto;html=1;rounded=0;fontSize=12;startSize=8;endSize=8;curved=1;strokeWidth=2;" parent="1" edge="1">
          <mxGeometry width="140" relative="1" as="geometry">
            <mxPoint x="529" y="150" as="sourcePoint" />
            <mxPoint x="570" y="150" as="targetPoint" />
            <Array as="points" />
          </mxGeometry>
        </mxCell>
        <mxCell id="Y-c2Va9Qzz9B_mJ6yjjV-115" value="" style="edgeStyle=none;orthogonalLoop=1;jettySize=auto;html=1;rounded=0;fontSize=12;startSize=8;endSize=8;curved=1;strokeWidth=3;exitX=0.25;exitY=0;exitDx=0;exitDy=0;" parent="1" edge="1">
          <mxGeometry width="140" relative="1" as="geometry">
            <mxPoint x="772" y="205" as="sourcePoint" />
            <mxPoint x="770" y="105" as="targetPoint" />
            <Array as="points" />
          </mxGeometry>
        </mxCell>
        <mxCell id="Y-c2Va9Qzz9B_mJ6yjjV-116" value="" style="edgeStyle=none;orthogonalLoop=1;jettySize=auto;html=1;rounded=0;fontSize=12;startSize=8;endSize=8;curved=1;strokeWidth=3;exitX=0.599;exitY=1.026;exitDx=0;exitDy=0;exitPerimeter=0;entryX=0.599;entryY=0;entryDx=0;entryDy=0;entryPerimeter=0;" parent="1" edge="1">
          <mxGeometry width="140" relative="1" as="geometry">
            <mxPoint x="873" y="100" as="sourcePoint" />
            <mxPoint x="873" y="205" as="targetPoint" />
            <Array as="points" />
          </mxGeometry>
        </mxCell>
        <mxCell id="Y-c2Va9Qzz9B_mJ6yjjV-117" value="" style="edgeStyle=segmentEdgeStyle;endArrow=classic;html=1;curved=0;rounded=0;endSize=8;startSize=8;sourcePerimeterSpacing=0;targetPerimeterSpacing=0;fontSize=12;strokeWidth=2;exitX=1;exitY=0.25;exitDx=0;exitDy=0;" parent="1" source="Y-c2Va9Qzz9B_mJ6yjjV-68" edge="1">
          <mxGeometry width="140" relative="1" as="geometry">
            <mxPoint x="620" y="20" as="sourcePoint" />
            <mxPoint x="680" y="278" as="targetPoint" />
            <Array as="points">
              <mxPoint x="620" y="50" />
              <mxPoint x="640" y="50" />
              <mxPoint x="640" y="278" />
            </Array>
          </mxGeometry>
        </mxCell>
        <mxCell id="Y-c2Va9Qzz9B_mJ6yjjV-118" value="" style="edgeStyle=none;orthogonalLoop=1;jettySize=auto;html=1;rounded=0;fontSize=12;startSize=8;endSize=8;curved=1;strokeWidth=2;exitX=0.98;exitY=0.274;exitDx=0;exitDy=0;exitPerimeter=0;" parent="1" source="Y-c2Va9Qzz9B_mJ6yjjV-80" edge="1">
          <mxGeometry width="140" relative="1" as="geometry">
            <mxPoint x="1079" y="74.17" as="sourcePoint" />
            <mxPoint x="1120" y="74.17" as="targetPoint" />
            <Array as="points" />
          </mxGeometry>
        </mxCell>
        <mxCell id="Y-c2Va9Qzz9B_mJ6yjjV-119" value="" style="edgeStyle=none;orthogonalLoop=1;jettySize=auto;html=1;rounded=0;fontSize=12;startSize=8;endSize=8;curved=1;strokeWidth=2;exitX=0.98;exitY=0.274;exitDx=0;exitDy=0;exitPerimeter=0;" parent="1" edge="1">
          <mxGeometry width="140" relative="1" as="geometry">
            <mxPoint x="970" y="240" as="sourcePoint" />
            <mxPoint x="1010" y="241" as="targetPoint" />
            <Array as="points" />
          </mxGeometry>
        </mxCell>
        <mxCell id="Y-c2Va9Qzz9B_mJ6yjjV-121" value="" style="edgeStyle=segmentEdgeStyle;endArrow=classic;html=1;curved=0;rounded=0;endSize=8;startSize=8;sourcePerimeterSpacing=0;targetPerimeterSpacing=0;fontSize=12;strokeColor=#3333FF;strokeWidth=2;entryX=0.75;entryY=1;entryDx=0;entryDy=0;" parent="1" edge="1">
          <mxGeometry width="140" relative="1" as="geometry">
            <mxPoint x="620" y="452" as="sourcePoint" />
            <mxPoint x="160" y="32" as="targetPoint" />
            <Array as="points">
              <mxPoint x="660" y="452" />
              <mxPoint x="660" y="580" />
              <mxPoint x="140" y="580" />
              <mxPoint x="140" y="32" />
            </Array>
          </mxGeometry>
        </mxCell>
        <mxCell id="Y-c2Va9Qzz9B_mJ6yjjV-125" value="" style="edgeStyle=none;orthogonalLoop=1;jettySize=auto;html=1;rounded=0;fontSize=12;startSize=8;endSize=8;curved=1;strokeWidth=2;strokeColor=#1100fa;" parent="1" edge="1">
          <mxGeometry width="140" relative="1" as="geometry">
            <mxPoint x="139" y="188.33" as="sourcePoint" />
            <mxPoint x="160" y="188" as="targetPoint" />
            <Array as="points" />
          </mxGeometry>
        </mxCell>
        <mxCell id="Y-c2Va9Qzz9B_mJ6yjjV-126" value="" style="edgeStyle=segmentEdgeStyle;endArrow=classic;html=1;curved=0;rounded=0;endSize=8;startSize=8;sourcePerimeterSpacing=0;targetPerimeterSpacing=0;fontSize=12;strokeColor=#3333FF;strokeWidth=2;entryX=0.5;entryY=1;entryDx=0;entryDy=0;exitX=0.41;exitY=1;exitDx=0;exitDy=0;exitPerimeter=0;" parent="1" source="Y-c2Va9Qzz9B_mJ6yjjV-83" target="Y-c2Va9Qzz9B_mJ6yjjV-51" edge="1">
          <mxGeometry width="140" relative="1" as="geometry">
            <mxPoint x="1280" y="550" as="sourcePoint" />
            <mxPoint x="137" y="-4" as="targetPoint" />
            <Array as="points">
              <mxPoint x="1280" y="620" />
              <mxPoint x="117" y="620" />
              <mxPoint x="117" y="-4" />
              <mxPoint x="160" y="-4" />
            </Array>
          </mxGeometry>
        </mxCell>
        <mxCell id="Y-c2Va9Qzz9B_mJ6yjjV-127" value="" style="edgeStyle=none;orthogonalLoop=1;jettySize=auto;html=1;rounded=0;fontSize=12;startSize=8;endSize=8;curved=1;strokeWidth=2;strokeColor=#1100fa;" parent="1" edge="1">
          <mxGeometry width="140" relative="1" as="geometry">
            <mxPoint x="120" y="152" as="sourcePoint" />
            <mxPoint x="163" y="152" as="targetPoint" />
            <Array as="points" />
          </mxGeometry>
        </mxCell>
        <mxCell id="Y-c2Va9Qzz9B_mJ6yjjV-128" value="" style="edgeStyle=none;orthogonalLoop=1;jettySize=auto;html=1;rounded=0;fontSize=12;startSize=8;endSize=8;curved=1;strokeWidth=2;" parent="1" edge="1">
          <mxGeometry width="140" relative="1" as="geometry">
            <mxPoint x="101" y="118" as="sourcePoint" />
            <mxPoint x="161" y="118" as="targetPoint" />
            <Array as="points" />
          </mxGeometry>
        </mxCell>
        <mxCell id="Y-c2Va9Qzz9B_mJ6yjjV-129" value="" style="edgeStyle=segmentEdgeStyle;endArrow=classic;html=1;curved=0;rounded=0;endSize=8;startSize=8;sourcePerimeterSpacing=0;targetPerimeterSpacing=0;fontSize=12;strokeWidth=2;entryX=1;entryY=0.5;entryDx=0;entryDy=0;exitX=1;exitY=0.5;exitDx=0;exitDy=0;" parent="1" edge="1">
          <mxGeometry width="140" relative="1" as="geometry">
            <mxPoint x="530" y="340" as="sourcePoint" />
            <mxPoint x="180" y="188" as="targetPoint" />
            <Array as="points">
              <mxPoint x="540" y="340" />
              <mxPoint x="540" y="228" />
              <mxPoint x="180" y="228" />
            </Array>
          </mxGeometry>
        </mxCell>
        <mxCell id="Y-c2Va9Qzz9B_mJ6yjjV-130" value="" style="edgeStyle=segmentEdgeStyle;endArrow=classic;html=1;curved=0;rounded=0;endSize=8;startSize=8;sourcePerimeterSpacing=0;targetPerimeterSpacing=0;fontSize=12;strokeWidth=2;entryX=1;entryY=0;entryDx=0;entryDy=0;exitX=1;exitY=0.433;exitDx=0;exitDy=0;exitPerimeter=0;" parent="1" source="Y-c2Va9Qzz9B_mJ6yjjV-63" target="Y-c2Va9Qzz9B_mJ6yjjV-51" edge="1">
          <mxGeometry width="140" relative="1" as="geometry">
            <mxPoint x="540" y="220" as="sourcePoint" />
            <mxPoint x="182" y="177" as="targetPoint" />
            <Array as="points">
              <mxPoint x="570" y="328" />
              <mxPoint x="570" y="210" />
              <mxPoint x="220" y="210" />
              <mxPoint x="220" y="70" />
              <mxPoint x="194" y="70" />
            </Array>
          </mxGeometry>
        </mxCell>
        <mxCell id="kp48HT83L2jwvXeqb2on-1" value="" style="edgeStyle=segmentEdgeStyle;endArrow=classic;html=1;curved=0;rounded=0;endSize=8;startSize=8;sourcePerimeterSpacing=0;targetPerimeterSpacing=0;fontSize=12;strokeWidth=2;" parent="1" edge="1">
          <mxGeometry width="140" relative="1" as="geometry">
            <mxPoint x="-800" y="180" as="sourcePoint" />
            <mxPoint x="-850" y="15" as="targetPoint" />
            <Array as="points">
              <mxPoint x="-800" y="180" />
              <mxPoint x="-950" y="180" />
              <mxPoint x="-950" y="15" />
            </Array>
          </mxGeometry>
        </mxCell>
        <mxCell id="kp48HT83L2jwvXeqb2on-2" value="" style="edgeStyle=none;orthogonalLoop=1;jettySize=auto;html=1;rounded=0;fontSize=12;startSize=8;endSize=8;curved=1;strokeWidth=2;" parent="1" edge="1">
          <mxGeometry width="140" relative="1" as="geometry">
            <mxPoint x="-560" y="15.599999999999994" as="sourcePoint" />
            <mxPoint x="-480" y="15.599999999999994" as="targetPoint" />
            <Array as="points" />
          </mxGeometry>
        </mxCell>
        <mxCell id="kp48HT83L2jwvXeqb2on-4" value="" style="edgeStyle=segmentEdgeStyle;endArrow=classic;html=1;curved=0;rounded=0;endSize=8;startSize=8;sourcePerimeterSpacing=0;targetPerimeterSpacing=0;fontSize=12;strokeWidth=2;exitX=1.004;exitY=0.422;exitDx=0;exitDy=0;exitPerimeter=0;entryX=0;entryY=0.5;entryDx=0;entryDy=0;" parent="1" source="Y-c2Va9Qzz9B_mJ6yjjV-70" target="Y-c2Va9Qzz9B_mJ6yjjV-7" edge="1">
          <mxGeometry width="140" relative="1" as="geometry">
            <mxPoint x="990" y="120" as="sourcePoint" />
            <mxPoint x="-1030" y="300" as="targetPoint" />
            <Array as="points">
              <mxPoint x="990" y="-4" />
              <mxPoint x="990" y="-130" />
              <mxPoint x="-1030" y="-130" />
              <mxPoint x="-1030" y="310" />
            </Array>
          </mxGeometry>
        </mxCell>
        <mxCell id="kp48HT83L2jwvXeqb2on-5" value="" style="edgeStyle=segmentEdgeStyle;endArrow=classic;html=1;curved=0;rounded=0;endSize=8;startSize=8;sourcePerimeterSpacing=0;targetPerimeterSpacing=0;fontSize=12;strokeWidth=2;entryX=0.5;entryY=1;entryDx=0;entryDy=0;exitX=1;exitY=0.5;exitDx=0;exitDy=0;" parent="1" source="Y-c2Va9Qzz9B_mJ6yjjV-7" target="Y-c2Va9Qzz9B_mJ6yjjV-4" edge="1">
          <mxGeometry width="140" relative="1" as="geometry">
            <mxPoint x="-550" y="310" as="sourcePoint" />
            <mxPoint x="-570" y="210" as="targetPoint" />
            <Array as="points">
              <mxPoint x="-520" y="310" />
              <mxPoint x="-520" y="210" />
              <mxPoint x="-705" y="210" />
            </Array>
          </mxGeometry>
        </mxCell>
        <mxCell id="kp48HT83L2jwvXeqb2on-10" value="" style="endArrow=none;html=1;rounded=0;fontSize=12;startSize=8;endSize=8;curved=1;strokeWidth=2;" parent="1" edge="1">
          <mxGeometry width="50" height="50" relative="1" as="geometry">
            <mxPoint x="-560" y="349" as="sourcePoint" />
            <mxPoint x="-520" y="349" as="targetPoint" />
          </mxGeometry>
        </mxCell>
        <mxCell id="kp48HT83L2jwvXeqb2on-11" value="" style="endArrow=none;html=1;rounded=0;fontSize=12;startSize=8;endSize=8;curved=1;strokeWidth=2;" parent="1" edge="1">
          <mxGeometry width="50" height="50" relative="1" as="geometry">
            <mxPoint x="-560" y="329" as="sourcePoint" />
            <mxPoint x="-520" y="329" as="targetPoint" />
          </mxGeometry>
        </mxCell>
        <mxCell id="kp48HT83L2jwvXeqb2on-12" value="" style="endArrow=none;html=1;rounded=0;fontSize=12;startSize=8;endSize=8;curved=1;strokeWidth=2;" parent="1" edge="1">
          <mxGeometry width="50" height="50" relative="1" as="geometry">
            <mxPoint x="-520" y="350" as="sourcePoint" />
            <mxPoint x="-520" y="310" as="targetPoint" />
          </mxGeometry>
        </mxCell>
        <mxCell id="kp48HT83L2jwvXeqb2on-13" value="" style="endArrow=none;html=1;rounded=0;fontSize=12;startSize=8;endSize=8;curved=1;strokeWidth=2;" parent="1" edge="1">
          <mxGeometry width="50" height="50" relative="1" as="geometry">
            <mxPoint x="-360" y="8.460000000000019" as="sourcePoint" />
            <mxPoint x="-320" y="8.460000000000019" as="targetPoint" />
          </mxGeometry>
        </mxCell>
        <mxCell id="kp48HT83L2jwvXeqb2on-14" value="" style="endArrow=none;html=1;rounded=0;fontSize=12;startSize=8;endSize=8;curved=1;strokeWidth=2;" parent="1" edge="1">
          <mxGeometry width="50" height="50" relative="1" as="geometry">
            <mxPoint x="-360" y="26.46000000000002" as="sourcePoint" />
            <mxPoint x="-320" y="26.46000000000002" as="targetPoint" />
          </mxGeometry>
        </mxCell>
        <mxCell id="kp48HT83L2jwvXeqb2on-15" value="" style="endArrow=none;html=1;rounded=0;fontSize=12;startSize=8;endSize=8;curved=1;strokeWidth=2;" parent="1" edge="1">
          <mxGeometry width="50" height="50" relative="1" as="geometry">
            <mxPoint x="-361" y="47.46000000000002" as="sourcePoint" />
            <mxPoint x="-321" y="47.46000000000002" as="targetPoint" />
          </mxGeometry>
        </mxCell>
        <mxCell id="kp48HT83L2jwvXeqb2on-16" value="" style="endArrow=none;html=1;rounded=0;fontSize=12;startSize=8;endSize=8;curved=1;strokeWidth=2;" parent="1" edge="1">
          <mxGeometry width="50" height="50" relative="1" as="geometry">
            <mxPoint x="-360" y="66.46000000000002" as="sourcePoint" />
            <mxPoint x="-320" y="66.46000000000002" as="targetPoint" />
          </mxGeometry>
        </mxCell>
        <mxCell id="kp48HT83L2jwvXeqb2on-17" value="" style="endArrow=none;html=1;rounded=0;fontSize=12;startSize=8;endSize=8;curved=1;strokeWidth=2;" parent="1" edge="1">
          <mxGeometry width="50" height="50" relative="1" as="geometry">
            <mxPoint x="-360" y="85.46000000000002" as="sourcePoint" />
            <mxPoint x="-320" y="85.46000000000002" as="targetPoint" />
          </mxGeometry>
        </mxCell>
        <mxCell id="kp48HT83L2jwvXeqb2on-18" value="" style="endArrow=none;html=1;rounded=0;fontSize=12;startSize=8;endSize=8;curved=1;strokeWidth=2;" parent="1" edge="1">
          <mxGeometry width="50" height="50" relative="1" as="geometry">
            <mxPoint x="-360" y="90" as="sourcePoint" />
            <mxPoint x="-360" y="10" as="targetPoint" />
          </mxGeometry>
        </mxCell>
        <mxCell id="kp48HT83L2jwvXeqb2on-19" value="" style="edgeStyle=segmentEdgeStyle;endArrow=classic;html=1;curved=0;rounded=0;endSize=8;startSize=8;sourcePerimeterSpacing=0;targetPerimeterSpacing=0;fontSize=12;strokeWidth=2;" parent="1" edge="1">
          <mxGeometry width="140" relative="1" as="geometry">
            <mxPoint x="-360" y="91" as="sourcePoint" />
            <mxPoint x="-30" y="190" as="targetPoint" />
            <Array as="points">
              <mxPoint x="-360" y="192" />
              <mxPoint x="10" y="192" />
              <mxPoint x="10" y="190" />
            </Array>
          </mxGeometry>
        </mxCell>
        <mxCell id="kp48HT83L2jwvXeqb2on-20" value="" style="endArrow=none;html=1;rounded=0;fontSize=12;startSize=8;endSize=8;curved=1;strokeWidth=2;" parent="1" edge="1">
          <mxGeometry width="50" height="50" relative="1" as="geometry">
            <mxPoint x="-20" y="243" as="sourcePoint" />
            <mxPoint x="10" y="243.38" as="targetPoint" />
          </mxGeometry>
        </mxCell>
        <mxCell id="kp48HT83L2jwvXeqb2on-25" value="" style="endArrow=none;html=1;rounded=0;fontSize=12;startSize=8;endSize=8;curved=1;strokeWidth=2;" parent="1" edge="1">
          <mxGeometry width="50" height="50" relative="1" as="geometry">
            <mxPoint x="-30" y="4.230000000000018" as="sourcePoint" />
            <mxPoint x="10" y="4.230000000000018" as="targetPoint" />
          </mxGeometry>
        </mxCell>
        <mxCell id="kp48HT83L2jwvXeqb2on-26" value="" style="endArrow=none;html=1;rounded=0;fontSize=12;startSize=8;endSize=8;curved=1;strokeWidth=2;" parent="1" edge="1">
          <mxGeometry width="50" height="50" relative="1" as="geometry">
            <mxPoint x="-29" y="26.230000000000018" as="sourcePoint" />
            <mxPoint x="11" y="26.230000000000018" as="targetPoint" />
          </mxGeometry>
        </mxCell>
        <mxCell id="kp48HT83L2jwvXeqb2on-29" value="" style="edgeStyle=segmentEdgeStyle;endArrow=classic;html=1;curved=0;rounded=0;endSize=8;startSize=8;sourcePerimeterSpacing=0;targetPerimeterSpacing=0;fontSize=12;strokeWidth=2;" parent="1" edge="1">
          <mxGeometry width="140" relative="1" as="geometry">
            <mxPoint x="10" as="sourcePoint" />
            <mxPoint x="-350.5" y="256" as="targetPoint" />
            <Array as="points">
              <mxPoint x="10.5" y="151" />
              <mxPoint x="-380.5" y="151" />
              <mxPoint x="-380.5" y="256" />
            </Array>
          </mxGeometry>
        </mxCell>
        <mxCell id="kp48HT83L2jwvXeqb2on-30" value="" style="endArrow=none;html=1;rounded=0;fontSize=12;startSize=8;endSize=8;curved=1;strokeWidth=2;" parent="1" edge="1">
          <mxGeometry width="50" height="50" relative="1" as="geometry">
            <mxPoint x="10" y="244" as="sourcePoint" />
            <mxPoint x="10" y="194" as="targetPoint" />
          </mxGeometry>
        </mxCell>
        <mxCell id="kp48HT83L2jwvXeqb2on-31" style="edgeStyle=none;curved=1;rounded=0;orthogonalLoop=1;jettySize=auto;html=1;exitX=0;exitY=0.75;exitDx=0;exitDy=0;fontSize=12;startSize=8;endSize=8;" parent="1" source="Y-c2Va9Qzz9B_mJ6yjjV-37" target="Y-c2Va9Qzz9B_mJ6yjjV-37" edge="1">
          <mxGeometry relative="1" as="geometry" />
        </mxCell>
        <mxCell id="kp48HT83L2jwvXeqb2on-32" style="edgeStyle=none;curved=1;rounded=0;orthogonalLoop=1;jettySize=auto;html=1;exitX=1;exitY=0.75;exitDx=0;exitDy=0;fontSize=12;startSize=8;endSize=8;" parent="1" source="Y-c2Va9Qzz9B_mJ6yjjV-36" edge="1">
          <mxGeometry relative="1" as="geometry">
            <mxPoint x="-270" y="353" as="targetPoint" />
            <Array as="points">
              <mxPoint x="-270" y="353" />
              <mxPoint x="-280" y="353" />
            </Array>
          </mxGeometry>
        </mxCell>
        <mxCell id="kp48HT83L2jwvXeqb2on-39" value="" style="edgeStyle=segmentEdgeStyle;endArrow=classic;html=1;curved=0;rounded=0;endSize=8;startSize=8;sourcePerimeterSpacing=0;targetPerimeterSpacing=0;fontSize=12;strokeWidth=2;" parent="1" source="Y-c2Va9Qzz9B_mJ6yjjV-83" edge="1">
          <mxGeometry width="140" relative="1" as="geometry">
            <mxPoint x="1530" y="140" as="sourcePoint" />
            <mxPoint x="-348" y="353" as="targetPoint" />
            <Array as="points">
              <mxPoint x="1540" y="120" />
              <mxPoint x="1540" y="870" />
              <mxPoint x="-390" y="870" />
              <mxPoint x="-390" y="353" />
            </Array>
          </mxGeometry>
        </mxCell>
        <mxCell id="kp48HT83L2jwvXeqb2on-40" value="" style="edgeStyle=segmentEdgeStyle;endArrow=classic;html=1;curved=0;rounded=0;endSize=8;startSize=8;sourcePerimeterSpacing=0;targetPerimeterSpacing=0;fontSize=12;strokeWidth=2;exitX=0.926;exitY=1.029;exitDx=0;exitDy=0;exitPerimeter=0;" parent="1" source="Y-c2Va9Qzz9B_mJ6yjjV-83" edge="1">
          <mxGeometry width="140" relative="1" as="geometry">
            <mxPoint x="1480" y="230" as="sourcePoint" />
            <mxPoint x="-347" y="376" as="targetPoint" />
            <Array as="points">
              <mxPoint x="1481" y="910" />
              <mxPoint x="-380" y="910" />
              <mxPoint x="-380" y="376" />
            </Array>
          </mxGeometry>
        </mxCell>
        <mxCell id="kp48HT83L2jwvXeqb2on-41" value="" style="edgeStyle=segmentEdgeStyle;endArrow=classic;html=1;curved=0;rounded=0;endSize=8;startSize=8;sourcePerimeterSpacing=0;targetPerimeterSpacing=0;fontSize=12;strokeWidth=2;exitX=1.004;exitY=0.344;exitDx=0;exitDy=0;exitPerimeter=0;" parent="1" source="Y-c2Va9Qzz9B_mJ6yjjV-83" edge="1">
          <mxGeometry width="140" relative="1" as="geometry">
            <mxPoint x="1560" y="110" as="sourcePoint" />
            <mxPoint x="-348" y="397" as="targetPoint" />
            <Array as="points">
              <mxPoint x="1560" y="102" />
              <mxPoint x="1560" y="950" />
              <mxPoint x="-370" y="950" />
              <mxPoint x="-370" y="397" />
            </Array>
          </mxGeometry>
        </mxCell>
        <mxCell id="kp48HT83L2jwvXeqb2on-43" value="" style="endArrow=none;html=1;rounded=0;fontSize=12;startSize=8;endSize=8;curved=1;strokeWidth=2;" parent="1" edge="1">
          <mxGeometry width="50" height="50" relative="1" as="geometry">
            <mxPoint x="-20" y="294.23" as="sourcePoint" />
            <mxPoint x="30" y="294" as="targetPoint" />
          </mxGeometry>
        </mxCell>
        <mxCell id="kp48HT83L2jwvXeqb2on-44" value="" style="endArrow=none;html=1;rounded=0;fontSize=12;startSize=8;endSize=8;curved=1;strokeWidth=2;" parent="1" edge="1">
          <mxGeometry width="50" height="50" relative="1" as="geometry">
            <mxPoint x="-19" y="313.23" as="sourcePoint" />
            <mxPoint x="30" y="313" as="targetPoint" />
          </mxGeometry>
        </mxCell>
        <mxCell id="kp48HT83L2jwvXeqb2on-45" value="" style="endArrow=none;html=1;rounded=0;fontSize=12;startSize=8;endSize=8;curved=1;strokeWidth=2;" parent="1" edge="1">
          <mxGeometry width="50" height="50" relative="1" as="geometry">
            <mxPoint x="-19" y="333.23" as="sourcePoint" />
            <mxPoint x="30" y="333" as="targetPoint" />
          </mxGeometry>
        </mxCell>
        <mxCell id="kp48HT83L2jwvXeqb2on-46" value="" style="endArrow=none;html=1;rounded=0;fontSize=12;startSize=8;endSize=8;curved=1;strokeWidth=2;" parent="1" edge="1">
          <mxGeometry width="50" height="50" relative="1" as="geometry">
            <mxPoint x="-20" y="352" as="sourcePoint" />
            <mxPoint x="22" y="352.23" as="targetPoint" />
          </mxGeometry>
        </mxCell>
        <mxCell id="kp48HT83L2jwvXeqb2on-47" value="" style="edgeStyle=segmentEdgeStyle;endArrow=classic;html=1;curved=0;rounded=0;endSize=8;startSize=8;sourcePerimeterSpacing=0;targetPerimeterSpacing=0;fontSize=12;strokeWidth=2;" parent="1" target="Y-c2Va9Qzz9B_mJ6yjjV-40" edge="1">
          <mxGeometry width="140" relative="1" as="geometry">
            <mxPoint x="20" y="352.04" as="sourcePoint" />
            <mxPoint x="50" y="-37.923076923076906" as="targetPoint" />
            <Array as="points">
              <mxPoint x="30" y="352" />
              <mxPoint x="30" y="-38" />
            </Array>
          </mxGeometry>
        </mxCell>
        <mxCell id="kp48HT83L2jwvXeqb2on-48" value="" style="endArrow=none;html=1;rounded=0;fontSize=12;startSize=8;endSize=8;curved=1;strokeWidth=2;" parent="1" edge="1">
          <mxGeometry width="50" height="50" relative="1" as="geometry">
            <mxPoint x="-19" y="372.23" as="sourcePoint" />
            <mxPoint x="31" y="372" as="targetPoint" />
          </mxGeometry>
        </mxCell>
        <mxCell id="kp48HT83L2jwvXeqb2on-49" value="" style="endArrow=none;html=1;rounded=0;fontSize=12;startSize=8;endSize=8;curved=1;strokeWidth=2;" parent="1" edge="1">
          <mxGeometry width="50" height="50" relative="1" as="geometry">
            <mxPoint x="-18" y="391.23" as="sourcePoint" />
            <mxPoint x="31" y="391" as="targetPoint" />
          </mxGeometry>
        </mxCell>
        <mxCell id="kp48HT83L2jwvXeqb2on-50" value="" style="endArrow=none;html=1;rounded=0;fontSize=12;startSize=8;endSize=8;curved=1;strokeWidth=2;" parent="1" edge="1">
          <mxGeometry width="50" height="50" relative="1" as="geometry">
            <mxPoint x="-18" y="411.23" as="sourcePoint" />
            <mxPoint x="31" y="411" as="targetPoint" />
          </mxGeometry>
        </mxCell>
        <mxCell id="kp48HT83L2jwvXeqb2on-51" value="" style="endArrow=none;html=1;rounded=0;fontSize=12;startSize=8;endSize=8;curved=1;strokeWidth=2;" parent="1" edge="1">
          <mxGeometry width="50" height="50" relative="1" as="geometry">
            <mxPoint x="-19" y="430" as="sourcePoint" />
            <mxPoint x="30" y="430" as="targetPoint" />
          </mxGeometry>
        </mxCell>
        <mxCell id="kp48HT83L2jwvXeqb2on-52" value="" style="edgeStyle=segmentEdgeStyle;endArrow=classic;html=1;curved=0;rounded=0;endSize=8;startSize=8;sourcePerimeterSpacing=0;targetPerimeterSpacing=0;fontSize=12;strokeWidth=2;entryX=0.007;entryY=0.607;entryDx=0;entryDy=0;entryPerimeter=0;" parent="1" target="Y-c2Va9Qzz9B_mJ6yjjV-83" edge="1">
          <mxGeometry width="140" relative="1" as="geometry">
            <mxPoint x="30" y="370" as="sourcePoint" />
            <mxPoint x="1090" y="120" as="targetPoint" />
            <Array as="points">
              <mxPoint x="30" y="650" />
              <mxPoint x="1090" y="650" />
              <mxPoint x="1090" y="149" />
            </Array>
          </mxGeometry>
        </mxCell>
        <mxCell id="kp48HT83L2jwvXeqb2on-53" value="" style="endArrow=none;html=1;rounded=0;fontSize=12;startSize=8;endSize=8;curved=1;strokeWidth=2;" parent="1" edge="1">
          <mxGeometry width="50" height="50" relative="1" as="geometry">
            <mxPoint x="-19" y="447.23" as="sourcePoint" />
            <mxPoint x="10" y="447" as="targetPoint" />
          </mxGeometry>
        </mxCell>
        <mxCell id="kp48HT83L2jwvXeqb2on-54" value="" style="endArrow=none;html=1;rounded=0;fontSize=12;startSize=8;endSize=8;curved=1;strokeWidth=2;" parent="1" edge="1">
          <mxGeometry width="50" height="50" relative="1" as="geometry">
            <mxPoint x="-20" y="466" as="sourcePoint" />
            <mxPoint x="10" y="466" as="targetPoint" />
          </mxGeometry>
        </mxCell>
        <mxCell id="kp48HT83L2jwvXeqb2on-55" value="" style="edgeStyle=segmentEdgeStyle;endArrow=classic;html=1;curved=0;rounded=0;endSize=8;startSize=8;sourcePerimeterSpacing=0;targetPerimeterSpacing=0;fontSize=12;strokeWidth=2;" parent="1" edge="1">
          <mxGeometry width="140" relative="1" as="geometry">
            <mxPoint x="9.91" y="447" as="sourcePoint" />
            <mxPoint x="680" y="313" as="targetPoint" />
            <Array as="points">
              <mxPoint x="10" y="507" />
              <mxPoint x="630" y="507" />
              <mxPoint x="630" y="313" />
            </Array>
          </mxGeometry>
        </mxCell>
        <mxCell id="kp48HT83L2jwvXeqb2on-56" value="" style="edgeStyle=segmentEdgeStyle;endArrow=classic;html=1;curved=0;rounded=0;endSize=8;startSize=8;sourcePerimeterSpacing=0;targetPerimeterSpacing=0;fontSize=12;strokeWidth=2;entryX=0.5;entryY=1;entryDx=0;entryDy=0;" parent="1" target="Y-c2Va9Qzz9B_mJ6yjjV-7" edge="1">
          <mxGeometry width="140" relative="1" as="geometry">
            <mxPoint x="-20" y="640" as="sourcePoint" />
            <mxPoint x="420" y="1060" as="targetPoint" />
            <Array as="points">
              <mxPoint y="640" />
              <mxPoint y="990" />
              <mxPoint x="-705" y="990" />
            </Array>
          </mxGeometry>
        </mxCell>
        <mxCell id="kp48HT83L2jwvXeqb2on-57" value="" style="edgeStyle=segmentEdgeStyle;endArrow=classic;html=1;curved=0;rounded=0;endSize=8;startSize=8;sourcePerimeterSpacing=0;targetPerimeterSpacing=0;fontSize=12;strokeWidth=2;entryX=0.654;entryY=1.04;entryDx=0;entryDy=0;entryPerimeter=0;" parent="1" target="Y-c2Va9Qzz9B_mJ6yjjV-7" edge="1">
          <mxGeometry width="140" relative="1" as="geometry">
            <mxPoint x="-20" y="510" as="sourcePoint" />
            <mxPoint x="-670" y="1020" as="targetPoint" />
            <Array as="points">
              <mxPoint x="-10" y="510" />
              <mxPoint x="-10" y="620" />
              <mxPoint x="20" y="620" />
              <mxPoint x="20" y="1030" />
              <mxPoint x="-670" y="1030" />
              <mxPoint x="-670" y="407" />
            </Array>
          </mxGeometry>
        </mxCell>
        <mxCell id="kp48HT83L2jwvXeqb2on-58" value="" style="edgeStyle=segmentEdgeStyle;endArrow=classic;html=1;curved=0;rounded=0;endSize=8;startSize=8;sourcePerimeterSpacing=0;targetPerimeterSpacing=0;fontSize=12;strokeWidth=2;entryX=-0.019;entryY=0.66;entryDx=0;entryDy=0;entryPerimeter=0;" parent="1" edge="1">
          <mxGeometry width="140" relative="1" as="geometry">
            <mxPoint x="-30" y="481" as="sourcePoint" />
            <mxPoint x="680.0000000000002" y="30.999999999999954" as="targetPoint" />
            <Array as="points">
              <mxPoint x="75" y="481" />
              <mxPoint x="75" y="672" />
              <mxPoint x="660" y="672" />
              <mxPoint x="660" y="31" />
            </Array>
          </mxGeometry>
        </mxCell>
        <mxCell id="kp48HT83L2jwvXeqb2on-61" value="" style="edgeStyle=segmentEdgeStyle;endArrow=classic;html=1;curved=0;rounded=0;endSize=8;startSize=8;sourcePerimeterSpacing=0;targetPerimeterSpacing=0;fontSize=12;entryX=0;entryY=0.75;entryDx=0;entryDy=0;strokeWidth=2;" parent="1" target="Y-c2Va9Qzz9B_mJ6yjjV-70" edge="1">
          <mxGeometry width="140" relative="1" as="geometry">
            <mxPoint x="630" y="310" as="sourcePoint" />
            <mxPoint x="670" y="60" as="targetPoint" />
            <Array as="points">
              <mxPoint x="630" y="60" />
              <mxPoint x="680" y="60" />
            </Array>
          </mxGeometry>
        </mxCell>
        <mxCell id="kp48HT83L2jwvXeqb2on-62" value="" style="edgeStyle=segmentEdgeStyle;endArrow=classic;html=1;curved=0;rounded=0;endSize=8;startSize=8;sourcePerimeterSpacing=0;targetPerimeterSpacing=0;fontSize=12;strokeWidth=2;entryX=0;entryY=0.25;entryDx=0;entryDy=0;" parent="1" edge="1">
          <mxGeometry width="140" relative="1" as="geometry">
            <mxPoint x="970" y="-1" as="sourcePoint" />
            <mxPoint x="-350" y="279" as="targetPoint" />
            <Array as="points">
              <mxPoint x="970" y="20" />
              <mxPoint x="1000" y="20" />
              <mxPoint x="1000" y="-110" />
              <mxPoint x="-410" y="-110" />
              <mxPoint x="-410" y="279" />
            </Array>
          </mxGeometry>
        </mxCell>
      </root>
    </mxGraphModel>
  </diagram>
</mxfile>
